*************************************************************************
              Cloverfield.2008.DvDrip.XviD.AC3-SMiL3
************************************************************************* 
http://img641.imageshack.us/img641/3034/260108cloverfield597175.jpg

[b]

[color=yellow]Info[/color]

Ripper ...........: SMiL3
Video Codec.......: XVID
Release Date......: 2008
Audio Codec.......: AC3
Runtime...........: 1h 24mn
Subtitles.........: None
Language..........: ENGLISH
Resolution........: 640*352

[color=yellow]Video[/color]
ID                               : 0
Format                           : MPEG-4 Visual
Format profile                   : Advanced Simple@L5
Format settings, BVOP            : Yes
Format settings, QPel            : No
Format settings, GMC             : No warppoints
Format settings, Matrix          : Default (H.263)
Muxing mode                      : Packed bitstream
Codec ID                         : XVID
Codec ID/Hint                    : XviD
Duration                         : 1h 24mn
Bit rate                         : 1 258 Kbps
Width                            : 640 pixels
Height                           : 352 pixels
Display aspect ratio             : 16:9
Frame rate                       : 29.970 fps
Color space                      : YUV
Chroma subsampling               : 4:2:0
Bit depth                        : 8 bits
Scan type                        : Progressive
Bits/(Pixel*Frame)               : 0.186
Stream size                      : 762 MiB (73%)
Writing library                  : XviD 1.2.1 (UTC 2008-12-04)

[color=yellow]Audio[/color]
ID                               : 1
Format                           : AC-3
Format/Info                      : Audio Coding 3
Mode extension                   : CM (complete main)
Codec ID                         : 2000
Duration                         : 1h 24mn
Bit rate mode                    : Constant
Bit rate                         : 448 Kbps
Channel(s)                       : 6 channels
Channel positions                : Front: L C R, Side: L R, LFE
Sampling rate                    : 48.0 KHz
Stream size                      : 271 MiB (26%)
Alignment                        : Aligned on interleaves
Interleave, duration             : 64 ms (1.92 video frames)
Interleave, preload duration     : 192 ms
Title                            : VTS_03_1 T01 3_2ch 448Kbps DELAY 0ms


[color=yellow]Screens[/color]


[color=yellow]Ripper note[/color]

Don't want it? Don't download it.
Have something we can use? LINE, CAM's, SCR's, DVD or BluRay? --> smil3rg[at]hushmail.com

*ANOTHER SMiL3 RELEASE
[/b]